<svg width="220" height="220" viewBox="0 0 220 220" fill="none" xmlns="http://www.w3.org/2000/svg">
  <defs>
    <linearGradient id="core" x1="44" y1="96" x2="102" y2="154" gradientUnits="userSpaceOnUse">
      <stop offset="0" stop-color="#1E2A44"/>
      <stop offset="1" stop-color="#3458C8"/>
    </linearGradient>
    <linearGradient id="blueNode" x1="116" y1="28" x2="170" y2="184" gradientUnits="userSpaceOnUse">
      <stop offset="0" stop-color="#273A68"/>
      <stop offset="1" stop-color="#2F4F96"/>
    </linearGradient>
    <linearGradient id="goldNode" x1="48" y1="36" x2="180" y2="132" gradientUnits="userSpaceOnUse">
      <stop offset="0" stop-color="#F5D57B"/>
      <stop offset="1" stop-color="#E9B953"/>
    </linearGradient>
    <radialGradient id="hubGlow" cx="0" cy="0" r="1" gradientUnits="userSpaceOnUse" gradientTransform="translate(72 124) rotate(90) scale(14)">
      <stop offset="0" stop-color="#FFF8DE"/>
      <stop offset="1" stop-color="#F2C763"/>
    </radialGradient>
  </defs>

  <g stroke="#24355D" stroke-width="10" stroke-linecap="round" stroke-linejoin="round">
    <path d="M64 68V96"/>
    <path d="M96 102L126 72"/>
    <path d="M100 113H142"/>
    <path d="M92 146L116 160"/>
  </g>

  <rect x="44" y="96" width="56" height="56" rx="15" fill="url(#core)" stroke="#FFFFFF" stroke-opacity="0.12" stroke-width="1.5"/>
  <rect x="48" y="36" width="32" height="32" rx="9" fill="url(#goldNode)" stroke="#FFFFFF" stroke-opacity="0.18" stroke-width="1.5"/>
  <rect x="122" y="34" width="42" height="42" rx="12" fill="url(#blueNode)" stroke="#FFFFFF" stroke-opacity="0.12" stroke-width="1.5"/>
  <rect x="142" y="94" width="38" height="38" rx="10" fill="url(#goldNode)" stroke="#FFFFFF" stroke-opacity="0.18" stroke-width="1.5"/>
  <rect x="116" y="148" width="32" height="32" rx="9" fill="url(#blueNode)" stroke="#FFFFFF" stroke-opacity="0.12" stroke-width="1.5"/>

  <circle cx="72" cy="124" r="13" fill="#8CA6FF" fill-opacity="0.18"/>
  <circle cx="72" cy="124" r="7.5" fill="url(#hubGlow)"/>
</svg>
