<svg width="1600" height="720" viewBox="0 0 1600 720" fill="none" xmlns="http://www.w3.org/2000/svg" role="img" aria-labelledby="bannerTitle bannerDesc">
  <title id="bannerTitle">Banner de ImageFlow Frontend</title>
  <desc id="bannerDesc">Hero visual en espanol para el README de ImageFlow Frontend.</desc>
  <defs>
    <linearGradient id="bg" x1="120" y1="80" x2="1500" y2="680" gradientUnits="userSpaceOnUse">
      <stop stop-color="#F6F4EE"/>
      <stop offset="0.45" stop-color="#FBFCFE"/>
      <stop offset="1" stop-color="#EEF3F9"/>
    </linearGradient>
    <linearGradient id="inkPanel" x1="1060" y1="88" x2="1494" y2="614" gradientUnits="userSpaceOnUse">
      <stop stop-color="#172554"/>
      <stop offset="0.55" stop-color="#0F172A"/>
      <stop offset="1" stop-color="#1E293B"/>
    </linearGradient>
    <linearGradient id="goldGrad" x1="240" y1="140" x2="540" y2="340" gradientUnits="userSpaceOnUse">
      <stop stop-color="#FDE68A"/>
      <stop offset="1" stop-color="#FACC15"/>
    </linearGradient>
    <filter id="shadow" x="0" y="0" width="1600" height="720" filterUnits="userSpaceOnUse" color-interpolation-filters="sRGB">
      <feDropShadow dx="0" dy="26" stdDeviation="30" flood-color="#0F172A" flood-opacity="0.16"/>
    </filter>
    <filter id="softGlow" x="-240" y="-240" width="2100" height="1300" filterUnits="userSpaceOnUse" color-interpolation-filters="sRGB">
      <feGaussianBlur stdDeviation="42"/>
    </filter>
  </defs>

  <rect width="1600" height="720" rx="40" fill="url(#bg)"/>
  <circle cx="1320" cy="168" r="150" fill="#FACC15" opacity="0.12" filter="url(#softGlow)"/>
  <circle cx="292" cy="600" r="124" fill="#EAB308" opacity="0.10" filter="url(#softGlow)"/>

  <g>
    <rect x="110" y="96" width="270" height="46" rx="23" fill="#FFFFFF" stroke="#E2E8F0"/>
    <circle cx="146" cy="119" r="7" fill="#FACC15"/>
    <text x="166" y="126" fill="#64748B" font-family="Verdana, Arial, sans-serif" font-size="15" font-weight="700" letter-spacing="2">INTERFAZ DE OPERACION</text>

    <text x="110" y="214" fill="#0F172A" font-family="Georgia, 'Times New Roman', serif" font-size="68" font-weight="700">Centro visual</text>
    <text x="110" y="292" fill="#0F172A" font-family="Georgia, 'Times New Roman', serif" font-size="68" font-weight="700">para pipelines</text>
    <text x="110" y="370" fill="#0F172A" font-family="Georgia, 'Times New Roman', serif" font-size="68" font-weight="700">de imagenes</text>
    <text x="110" y="448" fill="#0F172A" font-family="Georgia, 'Times New Roman', serif" font-size="68" font-weight="700">distribuidas</text>

    <text x="114" y="510" fill="#475569" font-family="Verdana, Arial, sans-serif" font-size="24">
      Carga, configura y supervisa lotes desde una interfaz
    </text>
    <text x="114" y="544" fill="#475569" font-family="Verdana, Arial, sans-serif" font-size="24">
      pensada para operadores, resultados, nodos y trazabilidad.
    </text>

    <g>
      <rect x="110" y="588" width="196" height="54" rx="27" fill="#0F172A"/>
      <text x="144" y="621" fill="#FFFFFF" font-family="Verdana, Arial, sans-serif" font-size="20" font-weight="700">8 nodos activos</text>

      <rect x="322" y="588" width="198" height="54" rx="27" fill="#FFFFFF" stroke="#E2E8F0"/>
      <text x="352" y="621" fill="#334155" font-family="Verdana, Arial, sans-serif" font-size="20" font-weight="700">Flujo de tareas</text>

      <rect x="536" y="588" width="214" height="54" rx="27" fill="url(#goldGrad)"/>
      <text x="568" y="621" fill="#0F172A" font-family="Verdana, Arial, sans-serif" font-size="20" font-weight="700">Resultados y logs</text>
    </g>
  </g>

  <path d="M1086 68C1232 66 1390 106 1516 220V612H906C940 486 970 408 1040 292C1066 250 1070 174 1086 68Z" fill="url(#inkPanel)"/>

  <g opacity="0.22" stroke="#F8FAFC" stroke-width="1.4">
    <path d="M1084 182L1168 148L1242 206L1330 166L1418 226L1492 188"/>
    <path d="M1058 292L1150 258L1230 318L1316 278L1402 338L1488 300"/>
    <path d="M1042 414L1136 372L1224 434L1310 396L1398 456L1488 420"/>
    <circle cx="1084" cy="182" r="5" fill="#FACC15" stroke="none"/>
    <circle cx="1242" cy="206" r="5" fill="#FACC15" stroke="none"/>
    <circle cx="1418" cy="226" r="5" fill="#FACC15" stroke="none"/>
    <circle cx="1136" cy="372" r="5" fill="#FACC15" stroke="none"/>
    <circle cx="1310" cy="396" r="5" fill="#FACC15" stroke="none"/>
  </g>

  <g filter="url(#shadow)">
    <rect x="940" y="108" width="548" height="500" rx="34" fill="#FFFFFF"/>
    <rect x="964" y="132" width="138" height="452" rx="26" fill="#0F172A"/>
    <rect x="1122" y="132" width="342" height="72" rx="24" fill="#F8FAFC" stroke="#E2E8F0"/>
    <rect x="1142" y="152" width="174" height="30" rx="15" fill="#FFFFFF" stroke="#E2E8F0"/>
    <circle cx="1338" cy="167" r="16" fill="#F0FDF4" stroke="#DCFCE7"/>
    <circle cx="1384" cy="167" r="16" fill="#FFFFFF" stroke="#E2E8F0"/>
    <circle cx="1430" cy="167" r="16" fill="#FFFFFF" stroke="#E2E8F0"/>

    <rect x="992" y="162" width="80" height="80" rx="22" fill="#FACC15"/>
    <circle cx="1032" cy="202" r="18" fill="#0F172A"/>
    <text x="988" y="278" fill="#FFFFFF" font-family="Verdana, Arial, sans-serif" font-size="16" font-weight="700">Inicio</text>
    <text x="988" y="308" fill="#CBD5E1" font-family="Verdana, Arial, sans-serif" font-size="15">Carga</text>
    <text x="988" y="338" fill="#CBD5E1" font-family="Verdana, Arial, sans-serif" font-size="15">Tareas</text>
    <text x="988" y="368" fill="#CBD5E1" font-family="Verdana, Arial, sans-serif" font-size="15">Progreso</text>
    <text x="988" y="398" fill="#CBD5E1" font-family="Verdana, Arial, sans-serif" font-size="15">Resultados</text>
    <text x="988" y="428" fill="#CBD5E1" font-family="Verdana, Arial, sans-serif" font-size="15">Nodos</text>
    <text x="988" y="458" fill="#CBD5E1" font-family="Verdana, Arial, sans-serif" font-size="15">Logs</text>
    <text x="988" y="488" fill="#CBD5E1" font-family="Verdana, Arial, sans-serif" font-size="15">Ajustes</text>

    <rect x="1122" y="226" width="154" height="122" rx="24" fill="#FFFFFF" stroke="#E2E8F0"/>
    <rect x="1290" y="226" width="174" height="122" rx="24" fill="#FFFFFF" stroke="#E2E8F0"/>
    <rect x="1122" y="364" width="342" height="186" rx="28" fill="#FFFFFF" stroke="#E2E8F0"/>

    <text x="1148" y="260" fill="#64748B" font-family="Verdana, Arial, sans-serif" font-size="13" font-weight="700" letter-spacing="1.4">PROCESADAS</text>
    <text x="1148" y="314" fill="#0F172A" font-family="Georgia, 'Times New Roman', serif" font-size="40" font-weight="700">1,482</text>
    <text x="1148" y="334" fill="#64748B" font-family="Verdana, Arial, sans-serif" font-size="14">volumen semanal</text>

    <text x="1316" y="260" fill="#64748B" font-family="Verdana, Arial, sans-serif" font-size="13" font-weight="700" letter-spacing="1.4">CLUSTER</text>
    <text x="1316" y="314" fill="#0F172A" font-family="Georgia, 'Times New Roman', serif" font-size="40" font-weight="700">8 / 8</text>
    <text x="1316" y="334" fill="#16A34A" font-family="Verdana, Arial, sans-serif" font-size="14" font-weight="700">nodos en linea</text>

    <text x="1148" y="404" fill="#0F172A" font-family="Verdana, Arial, sans-serif" font-size="20" font-weight="700">Rendimiento</text>
    <text x="1148" y="430" fill="#64748B" font-family="Verdana, Arial, sans-serif" font-size="14">Volumen procesado frente a presion de cola</text>

    <rect x="1148" y="482" width="24" height="42" rx="10" fill="#FACC15"/>
    <rect x="1182" y="462" width="24" height="62" rx="10" fill="#0F172A"/>
    <rect x="1216" y="440" width="24" height="84" rx="10" fill="#FACC15"/>
    <rect x="1250" y="418" width="24" height="106" rx="10" fill="#0F172A"/>
    <rect x="1284" y="448" width="24" height="76" rx="10" fill="#FACC15"/>
    <rect x="1318" y="398" width="24" height="126" rx="10" fill="#0F172A"/>
    <rect x="1352" y="430" width="24" height="94" rx="10" fill="#FACC15"/>
    <rect x="1386" y="390" width="24" height="134" rx="10" fill="#0F172A"/>
    <rect x="1420" y="440" width="24" height="84" rx="10" fill="#FACC15"/>
    <path d="M1146 468H1440" stroke="#E2E8F0" stroke-width="2"/>
  </g>

  <g filter="url(#shadow)">
    <rect x="1248" y="86" width="244" height="122" rx="26" fill="#FFFFFF"/>
    <text x="1274" y="120" fill="#64748B" font-family="Verdana, Arial, sans-serif" font-size="14" font-weight="700" letter-spacing="1.4">COLA VIVA</text>
    <text x="1274" y="168" fill="#0F172A" font-family="Georgia, 'Times New Roman', serif" font-size="40" font-weight="700">64 / min</text>
    <rect x="1270" y="184" width="88" height="10" rx="5" fill="#E2E8F0"/>
    <rect x="1270" y="184" width="58" height="10" rx="5" fill="#16A34A"/>
    <circle cx="1434" cy="120" r="20" fill="#FACC15"/>
  </g>
</svg>
