<svg width="1600" height="720" viewBox="0 0 1600 720" fill="none" xmlns="http://www.w3.org/2000/svg" role="img" aria-labelledby="bannerTitle bannerDesc">
  <title id="bannerTitle">ImageFlow Frontend banner</title>
  <desc id="bannerDesc">Premium editorial banner showing a distributed image operations dashboard in a Flutter interface.</desc>
  <defs>
    <linearGradient id="bg" x1="120" y1="80" x2="1500" y2="680" gradientUnits="userSpaceOnUse">
      <stop stop-color="#F6F4EE"/>
      <stop offset="0.45" stop-color="#FBFCFE"/>
      <stop offset="1" stop-color="#EEF3F9"/>
    </linearGradient>
    <linearGradient id="inkGrad" x1="1030" y1="110" x2="1520" y2="610" gradientUnits="userSpaceOnUse">
      <stop stop-color="#172554"/>
      <stop offset="0.5" stop-color="#0F172A"/>
      <stop offset="1" stop-color="#1E293B"/>
    </linearGradient>
    <linearGradient id="goldGrad" x1="240" y1="140" x2="540" y2="340" gradientUnits="userSpaceOnUse">
      <stop stop-color="#FDE68A"/>
      <stop offset="1" stop-color="#FACC15"/>
    </linearGradient>
    <filter id="shadow" x="0" y="0" width="1600" height="720" filterUnits="userSpaceOnUse" color-interpolation-filters="sRGB">
      <feDropShadow dx="0" dy="28" stdDeviation="32" flood-color="#0F172A" flood-opacity="0.16"/>
    </filter>
    <filter id="softGlow" x="-200" y="-200" width="2000" height="1200" filterUnits="userSpaceOnUse" color-interpolation-filters="sRGB">
      <feGaussianBlur stdDeviation="36"/>
    </filter>
  </defs>

  <rect width="1600" height="720" rx="40" fill="url(#bg)"/>

  <circle cx="1290" cy="156" r="146" fill="#FACC15" opacity="0.14" filter="url(#softGlow)"/>
  <circle cx="312" cy="588" r="122" fill="#EAB308" opacity="0.10" filter="url(#softGlow)"/>

  <path d="M1048 76C1228 66 1406 126 1538 230V620H868C904 458 930 378 1016 242C1036 210 1032 160 1048 76Z" fill="url(#inkGrad)"/>

  <g opacity="0.22" stroke="#F8FAFC" stroke-width="1.4">
    <path d="M1046 190L1140 154L1222 218L1324 170L1414 234L1494 188"/>
    <path d="M1020 300L1120 266L1210 328L1290 286L1388 346L1488 302"/>
    <path d="M1010 430L1108 388L1208 448L1314 410L1406 474L1490 434"/>
    <path d="M970 552L1080 518L1184 582L1288 538L1388 602L1490 560"/>
    <circle cx="1046" cy="190" r="5" fill="#FACC15" stroke="none"/>
    <circle cx="1140" cy="154" r="4" fill="#F8FAFC" stroke="none"/>
    <circle cx="1222" cy="218" r="5" fill="#FACC15" stroke="none"/>
    <circle cx="1324" cy="170" r="4" fill="#F8FAFC" stroke="none"/>
    <circle cx="1414" cy="234" r="5" fill="#FACC15" stroke="none"/>
    <circle cx="1494" cy="188" r="4" fill="#F8FAFC" stroke="none"/>
    <circle cx="1010" cy="430" r="4" fill="#F8FAFC" stroke="none"/>
    <circle cx="1108" cy="388" r="5" fill="#FACC15" stroke="none"/>
    <circle cx="1208" cy="448" r="4" fill="#F8FAFC" stroke="none"/>
    <circle cx="1314" cy="410" r="5" fill="#FACC15" stroke="none"/>
    <circle cx="1406" cy="474" r="4" fill="#F8FAFC" stroke="none"/>
    <circle cx="1490" cy="434" r="5" fill="#FACC15" stroke="none"/>
  </g>

  <g>
    <rect x="112" y="98" width="200" height="46" rx="23" fill="#FFFFFF" stroke="#E2E8F0"/>
    <circle cx="146" cy="121" r="7" fill="#FACC15"/>
    <text x="166" y="128" fill="#64748B" font-family="Verdana, Arial, sans-serif" font-size="15" font-weight="700" letter-spacing="2.2">IMAGEFLOW FRONTEND</text>

    <text x="112" y="234" fill="#0F172A" font-family="Georgia, 'Times New Roman', serif" font-size="78" font-weight="700">Distributed image</text>
    <text x="112" y="316" fill="#0F172A" font-family="Georgia, 'Times New Roman', serif" font-size="78" font-weight="700">ops with a premium</text>
    <text x="112" y="398" fill="#0F172A" font-family="Georgia, 'Times New Roman', serif" font-size="78" font-weight="700">Flutter control surface</text>

    <text x="116" y="464" fill="#475569" font-family="Verdana, Arial, sans-serif" font-size="26">
      Upload, configure, monitor and review distributed image workflows
    </text>
    <text x="116" y="500" fill="#475569" font-family="Verdana, Arial, sans-serif" font-size="26">
      from a responsive dashboard built around operators, nodes and results.
    </text>

    <g>
      <rect x="112" y="558" width="202" height="54" rx="27" fill="#0F172A"/>
      <text x="144" y="592" fill="#FFFFFF" font-family="Verdana, Arial, sans-serif" font-size="20" font-weight="700">8 worker nodes live</text>

      <rect x="330" y="558" width="188" height="54" rx="27" fill="#FFFFFF" stroke="#E2E8F0"/>
      <text x="364" y="592" fill="#334155" font-family="Verdana, Arial, sans-serif" font-size="20" font-weight="700">Task builder flow</text>

      <rect x="534" y="558" width="176" height="54" rx="27" fill="url(#goldGrad)"/>
      <text x="568" y="592" fill="#0F172A" font-family="Verdana, Arial, sans-serif" font-size="20" font-weight="700">Results and logs</text>
    </g>
  </g>

  <g filter="url(#shadow)">
    <rect x="894" y="112" width="590" height="500" rx="34" fill="#FFFFFF"/>
    <rect x="918" y="136" width="142" height="452" rx="26" fill="#0F172A"/>
    <rect x="1084" y="136" width="376" height="74" rx="24" fill="#F8FAFC" stroke="#E2E8F0"/>
    <rect x="1106" y="158" width="194" height="30" rx="15" fill="#FFFFFF" stroke="#E2E8F0"/>
    <circle cx="1328" cy="173" r="16" fill="#0F172A"/>
    <circle cx="1374" cy="173" r="16" fill="#FFFFFF" stroke="#E2E8F0"/>
    <circle cx="1420" cy="173" r="16" fill="#FFFFFF" stroke="#E2E8F0"/>

    <rect x="948" y="168" width="82" height="82" rx="22" fill="#FACC15"/>
    <circle cx="989" cy="209" r="18" fill="#0F172A"/>
    <text x="948" y="284" fill="#FFFFFF" font-family="Verdana, Arial, sans-serif" font-size="16" font-weight="700">Dashboard</text>
    <text x="948" y="316" fill="#94A3B8" font-family="Verdana, Arial, sans-serif" font-size="15">Upload</text>
    <text x="948" y="348" fill="#94A3B8" font-family="Verdana, Arial, sans-serif" font-size="15">Task Builder</text>
    <text x="948" y="380" fill="#94A3B8" font-family="Verdana, Arial, sans-serif" font-size="15">Progress</text>
    <text x="948" y="412" fill="#94A3B8" font-family="Verdana, Arial, sans-serif" font-size="15">Results</text>
    <text x="948" y="444" fill="#94A3B8" font-family="Verdana, Arial, sans-serif" font-size="15">Worker Nodes</text>
    <text x="948" y="476" fill="#94A3B8" font-family="Verdana, Arial, sans-serif" font-size="15">Logs</text>
    <text x="948" y="508" fill="#94A3B8" font-family="Verdana, Arial, sans-serif" font-size="15">Settings</text>

    <rect x="1084" y="238" width="176" height="124" rx="24" fill="#FFFFFF" stroke="#E2E8F0"/>
    <rect x="1274" y="238" width="186" height="124" rx="24" fill="#FFFFFF" stroke="#E2E8F0"/>
    <rect x="1084" y="378" width="376" height="186" rx="28" fill="#FFFFFF" stroke="#E2E8F0"/>

    <text x="1110" y="274" fill="#64748B" font-family="Verdana, Arial, sans-serif" font-size="14" font-weight="700" letter-spacing="1.4">PROCESSED</text>
    <text x="1110" y="328" fill="#0F172A" font-family="Georgia, 'Times New Roman', serif" font-size="42" font-weight="700">1,482</text>
    <text x="1110" y="348" fill="#64748B" font-family="Verdana, Arial, sans-serif" font-size="14">weekly volume</text>

    <text x="1300" y="274" fill="#64748B" font-family="Verdana, Arial, sans-serif" font-size="14" font-weight="700" letter-spacing="1.4">CLUSTER</text>
    <text x="1300" y="328" fill="#0F172A" font-family="Georgia, 'Times New Roman', serif" font-size="42" font-weight="700">8 / 8</text>
    <text x="1300" y="348" fill="#16A34A" font-family="Verdana, Arial, sans-serif" font-size="14" font-weight="700">healthy nodes</text>

    <text x="1110" y="416" fill="#0F172A" font-family="Verdana, Arial, sans-serif" font-size="20" font-weight="700">Throughput</text>
    <text x="1110" y="442" fill="#64748B" font-family="Verdana, Arial, sans-serif" font-size="14">Processed volume against queue pressure</text>

    <rect x="1110" y="490" width="26" height="42" rx="10" fill="#FACC15"/>
    <rect x="1146" y="466" width="26" height="66" rx="10" fill="#0F172A"/>
    <rect x="1182" y="446" width="26" height="86" rx="10" fill="#FACC15"/>
    <rect x="1218" y="422" width="26" height="110" rx="10" fill="#0F172A"/>
    <rect x="1254" y="456" width="26" height="76" rx="10" fill="#FACC15"/>
    <rect x="1290" y="400" width="26" height="132" rx="10" fill="#0F172A"/>
    <rect x="1326" y="436" width="26" height="96" rx="10" fill="#FACC15"/>
    <rect x="1362" y="390" width="26" height="142" rx="10" fill="#0F172A"/>
    <rect x="1398" y="424" width="26" height="108" rx="10" fill="#FACC15"/>

    <path d="M1108 470H1432" stroke="#E2E8F0" stroke-width="2"/>
  </g>

  <g filter="url(#shadow)">
    <rect x="1244" y="88" width="250" height="126" rx="26" fill="#FFFFFF"/>
    <text x="1270" y="124" fill="#64748B" font-family="Verdana, Arial, sans-serif" font-size="14" font-weight="700" letter-spacing="1.4">LIVE QUEUE</text>
    <text x="1270" y="172" fill="#0F172A" font-family="Georgia, 'Times New Roman', serif" font-size="40" font-weight="700">64 / min</text>
    <rect x="1268" y="188" width="86" height="10" rx="5" fill="#E2E8F0"/>
    <rect x="1268" y="188" width="60" height="10" rx="5" fill="#16A34A"/>
    <circle cx="1434" cy="122" r="20" fill="#FACC15"/>
  </g>
</svg>
