<svg width="1600" height="940" viewBox="0 0 1600 940" fill="none" xmlns="http://www.w3.org/2000/svg" role="img" aria-labelledby="demoTitle demoDesc">
  <title id="demoTitle">ImageFlow Frontend demo placeholder</title>
  <desc id="demoDesc">Stylized placeholder screenshot for the ImageFlow Frontend dashboard with a note to replace it with a real capture.</desc>
  <defs>
    <linearGradient id="demoBg" x1="96" y1="70" x2="1510" y2="870" gradientUnits="userSpaceOnUse">
      <stop stop-color="#F6F4EE"/>
      <stop offset="1" stop-color="#EEF3F9"/>
    </linearGradient>
    <filter id="demoShadow" x="0" y="0" width="1600" height="940" filterUnits="userSpaceOnUse" color-interpolation-filters="sRGB">
      <feDropShadow dx="0" dy="30" stdDeviation="28" flood-color="#0F172A" flood-opacity="0.14"/>
    </filter>
  </defs>

  <rect width="1600" height="940" rx="36" fill="url(#demoBg)"/>

  <g filter="url(#demoShadow)">
    <rect x="108" y="94" width="1384" height="760" rx="34" fill="#FFFFFF"/>
    <rect x="108" y="94" width="1384" height="62" rx="34" fill="#0F172A"/>
    <circle cx="156" cy="125" r="8" fill="#FCA5A5"/>
    <circle cx="184" cy="125" r="8" fill="#FCD34D"/>
    <circle cx="212" cy="125" r="8" fill="#86EFAC"/>
    <text x="248" y="132" fill="#FFFFFF" font-family="Verdana, Arial, sans-serif" font-size="18" font-weight="700">ImageFlow Frontend preview</text>

    <rect x="136" y="186" width="268" height="636" rx="28" fill="#0F172A"/>
    <rect x="432" y="186" width="1032" height="90" rx="28" fill="#F8FAFC" stroke="#E2E8F0"/>
    <rect x="468" y="214" width="318" height="34" rx="17" fill="#FFFFFF" stroke="#E2E8F0"/>
    <rect x="1130" y="206" width="166" height="48" rx="24" fill="#F0FDF4" stroke="#DCFCE7"/>
    <rect x="1312" y="206" width="52" height="48" rx="18" fill="#FFFFFF" stroke="#E2E8F0"/>
    <rect x="1380" y="206" width="52" height="48" rx="18" fill="#FFFFFF" stroke="#E2E8F0"/>

    <rect x="164" y="214" width="90" height="90" rx="24" fill="#FACC15"/>
    <circle cx="209" cy="259" r="18" fill="#0F172A"/>
    <text x="164" y="338" fill="#FFFFFF" font-family="Verdana, Arial, sans-serif" font-size="16" font-weight="700">ImageFlow</text>
    <text x="164" y="370" fill="#94A3B8" font-family="Verdana, Arial, sans-serif" font-size="15">Dashboard</text>
    <text x="164" y="402" fill="#94A3B8" font-family="Verdana, Arial, sans-serif" font-size="15">Upload</text>
    <text x="164" y="434" fill="#94A3B8" font-family="Verdana, Arial, sans-serif" font-size="15">Task Builder</text>
    <text x="164" y="466" fill="#94A3B8" font-family="Verdana, Arial, sans-serif" font-size="15">Progress</text>
    <text x="164" y="498" fill="#94A3B8" font-family="Verdana, Arial, sans-serif" font-size="15">Results</text>
    <text x="164" y="530" fill="#94A3B8" font-family="Verdana, Arial, sans-serif" font-size="15">History</text>
    <text x="164" y="562" fill="#94A3B8" font-family="Verdana, Arial, sans-serif" font-size="15">Worker Nodes</text>
    <text x="164" y="594" fill="#94A3B8" font-family="Verdana, Arial, sans-serif" font-size="15">Logs</text>
    <text x="164" y="626" fill="#94A3B8" font-family="Verdana, Arial, sans-serif" font-size="15">Settings</text>

    <rect x="164" y="674" width="212" height="112" rx="22" fill="#FFFFFF" opacity="0.08"/>
    <text x="188" y="710" fill="#E2E8F0" font-family="Verdana, Arial, sans-serif" font-size="14" font-weight="700" letter-spacing="1.4">CLUSTER HEALTH</text>
    <text x="188" y="748" fill="#FFFFFF" font-family="Verdana, Arial, sans-serif" font-size="24" font-weight="700">8 nodes healthy</text>
    <text x="188" y="776" fill="#CBD5E1" font-family="Verdana, Arial, sans-serif" font-size="14">64 images per minute</text>

    <rect x="432" y="304" width="236" height="156" rx="26" fill="#FFFFFF" stroke="#E2E8F0"/>
    <rect x="684" y="304" width="236" height="156" rx="26" fill="#FFFFFF" stroke="#E2E8F0"/>
    <rect x="936" y="304" width="236" height="156" rx="26" fill="#FFFFFF" stroke="#E2E8F0"/>
    <rect x="1188" y="304" width="276" height="156" rx="26" fill="#FFFFFF" stroke="#E2E8F0"/>

    <text x="462" y="344" fill="#64748B" font-family="Verdana, Arial, sans-serif" font-size="14" font-weight="700" letter-spacing="1.4">PROCESSED</text>
    <text x="462" y="408" fill="#0F172A" font-family="Georgia, 'Times New Roman', serif" font-size="48" font-weight="700">1,482</text>
    <text x="462" y="434" fill="#64748B" font-family="Verdana, Arial, sans-serif" font-size="15">current weekly window</text>

    <text x="714" y="344" fill="#64748B" font-family="Verdana, Arial, sans-serif" font-size="14" font-weight="700" letter-spacing="1.4">SUCCESS RATE</text>
    <text x="714" y="408" fill="#16A34A" font-family="Georgia, 'Times New Roman', serif" font-size="48" font-weight="700">99.8%</text>
    <text x="714" y="434" fill="#64748B" font-family="Verdana, Arial, sans-serif" font-size="15">batch completion quality</text>

    <text x="966" y="344" fill="#64748B" font-family="Verdana, Arial, sans-serif" font-size="14" font-weight="700" letter-spacing="1.4">MEDIAN SLA</text>
    <text x="966" y="408" fill="#0F172A" font-family="Georgia, 'Times New Roman', serif" font-size="48" font-weight="700">3.8s</text>
    <text x="966" y="434" fill="#64748B" font-family="Verdana, Arial, sans-serif" font-size="15">queue remains within target</text>

    <text x="1218" y="344" fill="#64748B" font-family="Verdana, Arial, sans-serif" font-size="14" font-weight="700" letter-spacing="1.4">RECENT BATCH</text>
    <text x="1218" y="390" fill="#0F172A" font-family="Verdana, Arial, sans-serif" font-size="28" font-weight="700">req-4522</text>
    <text x="1218" y="420" fill="#64748B" font-family="Verdana, Arial, sans-serif" font-size="15">24 images, 8 nodes, completed in 52s</text>
    <rect x="1218" y="436" width="116" height="10" rx="5" fill="#E2E8F0"/>
    <rect x="1218" y="436" width="116" height="10" rx="5" fill="#16A34A"/>

    <rect x="432" y="488" width="728" height="304" rx="30" fill="#FFFFFF" stroke="#E2E8F0"/>
    <rect x="1188" y="488" width="276" height="304" rx="30" fill="#FFFFFF" stroke="#E2E8F0"/>

    <text x="466" y="530" fill="#0F172A" font-family="Verdana, Arial, sans-serif" font-size="24" font-weight="700">Throughput</text>
    <text x="466" y="560" fill="#64748B" font-family="Verdana, Arial, sans-serif" font-size="15">Processed volume against queued pressure</text>

    <path d="M470 732H1120" stroke="#E2E8F0" stroke-width="2"/>
    <rect x="500" y="650" width="28" height="82" rx="12" fill="#FACC15"/>
    <rect x="542" y="610" width="28" height="122" rx="12" fill="#0F172A"/>
    <rect x="584" y="634" width="28" height="98" rx="12" fill="#FACC15"/>
    <rect x="626" y="578" width="28" height="154" rx="12" fill="#0F172A"/>
    <rect x="668" y="604" width="28" height="128" rx="12" fill="#FACC15"/>
    <rect x="710" y="548" width="28" height="184" rx="12" fill="#0F172A"/>
    <rect x="752" y="594" width="28" height="138" rx="12" fill="#FACC15"/>
    <rect x="794" y="530" width="28" height="202" rx="12" fill="#0F172A"/>
    <rect x="836" y="588" width="28" height="144" rx="12" fill="#FACC15"/>
    <rect x="878" y="564" width="28" height="168" rx="12" fill="#0F172A"/>
    <rect x="920" y="620" width="28" height="112" rx="12" fill="#FACC15"/>
    <rect x="962" y="572" width="28" height="160" rx="12" fill="#0F172A"/>

    <text x="1218" y="530" fill="#0F172A" font-family="Verdana, Arial, sans-serif" font-size="24" font-weight="700">Worker nodes</text>
    <text x="1218" y="560" fill="#64748B" font-family="Verdana, Arial, sans-serif" font-size="15">Load and heartbeat overview</text>

    <rect x="1218" y="586" width="216" height="68" rx="20" fill="#F8FAFC" stroke="#E2E8F0"/>
    <rect x="1218" y="668" width="216" height="68" rx="20" fill="#F8FAFC" stroke="#E2E8F0"/>
    <rect x="1218" y="750" width="216" height="20" rx="10" fill="#E2E8F0"/>
    <rect x="1218" y="750" width="162" height="20" rx="10" fill="#16A34A"/>
    <circle cx="1248" cy="620" r="9" fill="#16A34A"/>
    <circle cx="1248" cy="702" r="9" fill="#F59E0B"/>
    <text x="1272" y="626" fill="#0F172A" font-family="Verdana, Arial, sans-serif" font-size="18" font-weight="700">node-eu-01</text>
    <text x="1272" y="648" fill="#64748B" font-family="Verdana, Arial, sans-serif" font-size="14">41 percent load</text>
    <text x="1272" y="708" fill="#0F172A" font-family="Verdana, Arial, sans-serif" font-size="18" font-weight="700">node-us-02</text>
    <text x="1272" y="730" fill="#64748B" font-family="Verdana, Arial, sans-serif" font-size="14">67 percent load</text>
  </g>

  <g filter="url(#demoShadow)">
    <rect x="978" y="120" width="462" height="92" rx="24" fill="#0F172A"/>
    <text x="1012" y="158" fill="#FACC15" font-family="Verdana, Arial, sans-serif" font-size="16" font-weight="700" letter-spacing="1.8">README PLACEHOLDER</text>
    <text x="1012" y="192" fill="#FFFFFF" font-family="Verdana, Arial, sans-serif" font-size="28" font-weight="700">Replace this SVG with a real screenshot or GIF</text>
  </g>
</svg>
